<svg width="21" height="16" viewBox="0 0 21 16" fill="current" xmlns="http://www.w3.org/2000/svg">
<path d="M19.1499 0C19.7662 0 20.2311 0.515522 19.9825 1.47439L16.9658 15.0326C16.7549 15.9966 16.144 16.2286 15.3006 15.7801L8.10486 10.7125C8.07696 10.6934 8.05422 10.6683 8.03854 10.6392C8.02286 10.61 8.01468 10.5777 8.01468 10.545C8.01468 10.5122 8.02286 10.48 8.03854 10.4508C8.05422 10.4217 8.07696 10.3965 8.10486 10.3774L16.4143 3.22201C16.7928 2.90239 16.3332 2.74773 15.8358 3.03642L5.40713 9.31032C5.3755 9.32999 5.33959 9.34253 5.30212 9.34699C5.26466 9.35146 5.22661 9.34773 5.19088 9.33609L0.763138 8.00089C-0.220804 7.72767 -0.220804 7.08326 0.984796 6.62445L18.7012 0.108259C18.8417 0.0439849 18.9942 0.0071754 19.1499 0Z" fill="current"/>
</svg>
