<svg width="21" height="13" viewBox="0 0 21 13" fill="current" xmlns="http://www.w3.org/2000/svg">
<path d="M0.0507812 1.78846C0.0507812 1.05769 0.564615 0.769231 1.19703 0.730769L4.14169 0.75C4.31956 0.75 4.47766 0.865385 4.53695 1.03846C5.20888 3.15385 6.03892 4.46154 7.02707 5.94231C7.08635 6.05769 7.18517 6.11538 7.28398 6.11538C7.36303 6.11538 7.44209 6.07692 7.50137 5.98077L7.56066 5.76923L7.58043 2.44231C7.58043 1.96154 7.34327 1.88462 6.78991 1.80769C6.57252 1.76923 6.43418 1.57692 6.43418 1.38462C6.43418 1.34615 6.43418 1.30769 6.45394 1.26923C6.73062 0.442308 7.60019 0.0192308 8.82548 0.0192308L9.9322 0C10.8413 0 11.6713 0.384615 11.6713 1.51923V5.88461C11.7504 5.94231 11.8294 5.98077 11.9283 5.98077C12.0864 5.98077 12.284 5.88461 12.4421 5.63461C13.4698 4.23077 14.6358 2.55769 14.7939 1.67308C14.7939 1.63462 14.8136 1.61538 14.8334 1.57692C15.0508 1.15385 15.6041 0.865385 15.8413 0.788462C15.8808 0.769231 15.9401 0.75 16.0192 0.75H19.0824L19.28 0.769231C19.5765 0.769231 19.7939 0.961538 19.8927 1.13462C20.0705 1.40385 20.031 1.69231 20.0508 1.80769V1.94231C19.7543 3.69231 17.699 5.65385 16.8294 6.92308C16.7109 7.07692 16.6516 7.21154 16.6516 7.34615C16.6516 7.46154 16.7109 7.57692 16.8097 7.69231L19.695 11.2308C19.8532 11.4423 19.9322 11.6923 19.9322 11.9038C19.9322 12.5385 19.3196 12.9038 18.7267 12.9615L18.3907 12.9808H15.3867C15.3275 12.9808 15.2879 13 15.2286 13C14.8927 13 14.616 12.8269 14.4184 12.6346C13.786 11.8846 13.1733 11.1154 12.5607 10.3654C12.4421 10.2115 12.4026 10.1923 12.284 10.1154C12.1456 10.6731 12.0271 11.25 11.8887 11.8269L11.8294 12.1538C11.7306 12.5 11.4737 12.8654 10.9994 12.9615L10.7227 12.9808H8.78596C5.36699 12.9808 2.30375 8.25 0.149595 2.34615C0.0903069 2.19231 0.0507812 1.98077 0.0507812 1.78846Z" fill="current"/>
</svg>
